<svg xmlns="http://www.w3.org/2000/svg" width="430" height="430" style="width:100%;height:100%;transform:translate3d(0,0,0);content-visibility:visible" viewBox="0 0 430 430"><defs><clipPath id="c"><path d="M0 0h430v430H0z"/></clipPath><clipPath id="d"><path d="M0 0h430v430H0z"/></clipPath><filter id="a" width="100%" height="100%" x="0%" y="0%" filterUnits="objectBoundingBox"><feComponentTransfer in="SourceGraphic"><feFuncA tableValues="1.0 0.0" type="table"/></feComponentTransfer></filter><path id="b" fill="red" d="M38.396-234.493c-6.78 0-10.27-20.5-10.27-13.72 0 .41-8.98-8.18-8.94-7.78-1.48-.35-15.03 10.97-16.62 10.97-4.96 0-13.51-.72-17.06 2.24-1.55-5.99-7.49 38.59-13.96 38.59-7.69 0-13.91 6.23-13.91 13.91 0 .67.05 1.33.15 1.97-8.74 2.69-15.08 10.82-15.08 20.43 0 .9.05 1.8.17 2.66-1.37-.22-2.78-.34-4.21-.34-14.51 0-26.27 11.77-26.27 26.27 0 10.82 6.54 20.11 15.9 24.14l110.86 47.779 102.77-7.519c5.09-2.69 23.06-16.55 23.06-22.71 0-8.12 23.48-37.33 15.68-38.42 4.37-3.69-2.34-15.21-2.34-21.39 0-11.09 6.01-21.08-5.08-21.08-3.76 0-13.77-12.97-16.78-11.17-.98-6-9.18-11.06-15.45-11.06-2.95 0-12.17-12.49-14.31-10.78-.25-10.82 33.91-2.51 23.03-2.51-3.68 0-31.11-19.51-34.06-17.78-2.37-4.79-14.81-9.08-20.51-9.08-6.24 0-21.07-10.54-23.11-5-.81-5.99-27.44 11.38-33.66 11.38z" style="display:block" transform="translate(199.844 271.374)"/><mask id="e" mask-type="alpha"><g filter="url(#a)"><path fill="#fff" d="M0 0h430v430H0z" opacity="0"/><use xmlns:ns1="http://www.w3.org/1999/xlink" ns1:href="#b"/></g></mask></defs><g clip-path="url(#c)"><g clip-path="url(#d)" style="display:block"><path fill="#EBE6EF" d="M14.896-211.493c-6.78 0-12.27 5.5-12.27 12.28 0 .41.02.82.06 1.22-1.48-.35-3.03-.53-4.62-.53-4.96 0-9.51 1.78-13.06 4.74-1.55-5.99-6.99-10.41-13.46-10.41-7.69 0-13.91 6.23-13.91 13.91 0 .67.05 1.33.15 1.97-8.74 2.69-15.08 10.82-15.08 20.43 0 .9.05 1.8.17 2.66-1.37-.22-2.78-.34-4.21-.34-14.51 0-26.27 11.77-26.27 26.27 0 10.82 6.54 20.11 15.9 24.14l110.86 47.779 93.27-47.519c5.09-2.69 8.56-8.05 8.56-14.21 0-8.12-6.02-14.83-13.82-15.92 4.37-3.69 7.16-9.21 7.16-15.39 0-11.09-8.99-20.08-20.08-20.08-3.76 0-7.27 1.03-10.28 2.83-.98-6-6.18-10.56-12.45-10.56-2.95 0-5.67 1.01-7.81 2.72-.25-10.82-9.09-19.51-19.97-19.51-3.68 0-7.11.99-10.06 2.72-2.37-4.79-7.31-8.08-13.01-8.08-6.24 0-11.57 3.96-13.61 9.5-.81-5.99-5.94-10.62-12.16-10.62z" class="secondary" style="display:block" transform="translate(184.844 268.374)"/><g mask="url(#e)" opacity=".5" style="mix-blend-mode:multiply;display:block"><path fill="#EBE6EF" d="M199.74 56.881c-6.78 0-12.27 5.5-12.27 12.28 0 .41.02.82.06 1.22-1.48-.35-3.03-.53-4.62-.53-4.96 0-9.51 1.78-13.06 4.74-1.55-5.99-6.99-10.41-13.46-10.41-7.69 0-13.91 6.23-13.91 13.91 0 .67.05 1.33.15 1.97-8.74 2.69-15.08 10.82-15.08 20.43 0 .9.05 1.8.17 2.66-1.37-.22-2.78-.34-4.21-.34-14.51 0-26.27 11.77-26.27 26.27 0 10.82 6.54 20.11 15.9 24.14L224 201l93.27-47.519c5.09-2.69 8.56-8.05 8.56-14.21 0-8.12-6.02-14.83-13.82-15.92 4.37-3.69 7.16-9.21 7.16-15.39 0-11.09-8.99-20.08-20.08-20.08-3.76 0-7.27 1.03-10.28 2.83-.98-6-6.18-10.56-12.45-10.56-2.95 0-5.67 1.01-7.81 2.72-.25-10.82-9.09-19.51-19.97-19.51-3.68 0-7.11.99-10.06 2.72-2.37-4.79-7.31-8.08-13.01-8.08-6.24 0-11.57 3.96-13.61 9.5-.81-5.99-5.94-10.62-12.16-10.62z" class="secondary" opacity="1"/></g><g style="display:block"><path fill="#F24C00" d="M326.233 159.396c1.356.932 2.257 2.954 2.01 4.511l-32.999 208.51c-.246 1.558-1.812 2.823-3.494 2.823H137.676c-1.682 0-3.248-1.265-3.494-2.823l-33-208.51c-.246-1.557.654-3.58 2.01-4.512l7.358-5.062c.63-.438 1.27-.856 1.92-1.246 16.804-10.433 38.871-10.015 55.249 1.246l7.368 5.063c1.356.932 3.66 1.084 5.141.338l6.515-3.277c17.018-11.697 38.037-11.572 55.045.126l8.039 3.343c1.537.64 2.844 1.159 2.915 1.159.072 0 1.187-.81 2.489-1.807l6.466-4.955c16.52-11.346 38.82-11.679 55.666-.989a55.86 55.86 0 0 1 1.493.99l7.377 5.072z" class="tertiary"/><path fill="#F24C00" fill-opacity=".5" d="M23.986 111.699c.19 1.515-1 2.745-2.655 2.745h-8.81c-1.656 0-3.197-1.33-3.44-2.968l-32.475-219.281c-.242-1.638.647-3.76 1.986-4.735l7.118-5.187c.62-.46 1.25-.9 1.89-1.31 2.63-1.74 5.384-3.324 8.234-4.484l.766 5.467c.23 1.64.576 4.306.771 5.95l25.916 218.079c.195 1.644.509 4.209.699 5.724z" class="tertiary" style="mix-blend-mode:multiply" transform="matrix(1.01598 0 0 .95103 124.954 266.404)"/><path fill="#FFC738" d="m252.579 161.307-14.512 213.687H192.36l-14.697-214.347 7.388-5.565c14.575-11.832 40.076-13.832 58.83-.528l8.699 6.753z" class="quaternary"/></g><path fill="none" stroke="#121331" stroke-linecap="round" stroke-linejoin="round" stroke-width="7" d="m177.19 161.63 15.31 213.49m-79.36-221.9c-9.36-4.03-15.9-13.32-15.9-24.14 0-14.5 11.76-26.27 26.27-26.27 1.43 0 2.84.12 4.21.34-.12-.86-.17-1.76-.17-2.66 0-9.61 6.34-17.74 15.08-20.43-.1-.64-.15-1.3-.15-1.97 0-7.68 6.22-13.91 13.91-13.91 6.47 0 11.91 4.42 13.46 10.41 3.55-2.96 8.1-4.74 13.06-4.74 1.59 0 3.14.18 4.62.53-.04-.4-.06-.81-.06-1.22 0-6.78 5.49-12.28 12.27-12.28 6.22 0 11.35 4.63 12.16 10.62 2.04-5.54 7.37-9.5 13.61-9.5 5.7 0 10.64 3.29 13.01 8.08a19.8 19.8 0 0 1 10.06-2.72c10.88 0 19.72 8.69 19.97 19.51 2.14-1.71 4.86-2.72 7.81-2.72 6.27 0 11.47 4.56 12.45 10.56 3.01-1.8 6.52-2.83 10.28-2.83 11.09 0 20.08 8.99 20.08 20.08 0 6.18-2.79 11.7-7.16 15.39 7.8 1.09 13.82 7.8 13.82 15.92 0 6.16-3.47 11.52-8.56 14.21m-64.47 8.15-15.31 213.49m19.41-253.94c0-7.85-6.37-14.21-14.21-14.21-7.85 0-14.21 6.36-14.21 14.21m99.94 40.45-33.36 213.49H134.94l-33.36-213.49m0 0 9.67-7.1c16.74-12.29 39.52-12.3 56.27 0l9.67 7.1 9.67-7.1c16.74-12.3 39.52-12.3 56.27 0l9.67 7.1 9.67-7.1c16.75-12.3 39.53-12.3 56.27-.01l9.68 7.11" class="primary" style="display:block"/><g fill="none" style="display:none"><path class="primary"/><path class="primary" style="mix-blend-mode:multiply"/></g><g fill="none" style="display:none"><path class="primary"/><path class="primary" style="mix-blend-mode:multiply"/></g><g fill="none" style="display:none"><path class="secondary"/><path class="secondary" style="mix-blend-mode:multiply"/></g><g fill="none" style="display:none"><path class="secondary"/><path class="secondary" style="mix-blend-mode:multiply"/></g></g></g></svg>